<?xml version="1.0" encoding="UTF-8"?>
<svg version="1.1" xmlns="http://www.w3.org/2000/svg" width="312" height="312">
<path d="M0 0 C3.99241538 -0.18147343 6.56125016 -0.0632499 10 2 C11.0209375 2.495 11.0209375 2.495 12.0625 3 C14 4 14 4 17 6 C17.66 6.33 18.32 6.66 19 7 C19.99 7.66 20.98 8.32 22 9 C22.66 9.33 23.32 9.66 24 10 C24.495 10.99 24.495 10.99 25 12 C25.99 11.67 26.98 11.34 28 11 C28 10.34 28 9.68 28 9 C28.99 8.67 29.98 8.34 31 8 C33.16532528 7.05267019 34.7601742 6.2398258 36.4375 4.5625 C39.2411554 1.7588446 41.36499947 0.02320979 45.4765625 -0.03515625 C52.54542779 0.54542779 52.54542779 0.54542779 55 3 C57.77260299 4.93798263 57.77260299 4.93798263 60 6 C60.99 6.66 61.98 7.32 63 8 C63.99 8.495 63.99 8.495 65 9 C67.3097569 10.76320293 67.93823627 11.63663677 68.43237305 14.54370117 C68.45855713 15.53345947 68.48474121 16.52321777 68.51171875 17.54296875 C68.54716797 18.61611328 68.58261719 19.68925781 68.61914062 20.79492188 C68.64169922 21.91447266 68.66425781 23.03402344 68.6875 24.1875 C68.72166016 25.31865234 68.75582031 26.44980469 68.79101562 27.61523438 C68.87356314 30.4100574 68.94269182 33.20456398 69 36 C71.64 36.66 74.28 37.32 77 38 C77 38.66 77 39.32 77 40 C79.31 40.66 81.62 41.32 84 42 C84 42.66 84 43.32 84 44 C85.134375 44.268125 86.26875 44.53625 87.4375 44.8125 C88.613125 45.204375 89.78875 45.59625 91 46 C92.03343178 49.10029535 92.05592377 50.9867802 91.9140625 54.21875 C91.84832031 55.74048828 91.84832031 55.74048828 91.78125 57.29296875 C91.7296875 58.35128906 91.678125 59.40960938 91.625 60.5 C91.55925781 62.08748047 91.55925781 62.08748047 91.4921875 63.70703125 C91.13078746 71.60763761 91.13078746 71.60763761 90 75 C89.01 75.33 88.02 75.66 87 76 C83.59956623 77.42598835 81.36650644 79.16019228 79 82 C77.73215876 85.13350717 77.73215876 85.13350717 77 88 C76.34 88 75.68 88 75 88 C75.020625 89.216875 75.04125 90.43375 75.0625 91.6875 C75.05677761 94.91492629 74.94361645 97.88606572 74 101 C73.01 101.495 73.01 101.495 72 102 C72.04125 103.051875 72.0825 104.10375 72.125 105.1875 C72.00852125 108.74010173 71.52791932 110.84866641 70 114 C70.66 114.33 71.32 114.66 72 115 C71.505 116.485 71.505 116.485 71 118 C71.66 118.33 72.32 118.66 73 119 C73.33 119.66 73.66 120.32 74 121 C74.37125 121.53625 74.7425 122.0725 75.125 122.625 C76.49156818 126.33425649 75.75946944 129.13936369 75 133 C74.34 133.33 73.68 133.66 73 134 C72.401875 134.350625 71.80375 134.70125 71.1875 135.0625 C68.59130992 136.17515289 66.79884742 136.29461552 64 136 C63.34 135.34 62.68 134.68 62 134 C61.34 134 60.68 134 60 134 C59.94562393 132.41705218 59.90703729 130.83355744 59.875 129.25 C59.85179687 128.36828125 59.82859375 127.4865625 59.8046875 126.578125 C60.01163074 123.84647424 60.76150919 122.39896645 62 120 C62 118.68 62 117.36 62 116 C60.35 116.33 58.7 116.66 57 117 C56.22227595 119.33317216 55.57584432 121.61435923 55 124 C54.34 124 53.68 124 53 124 C53.02320313 124.80824219 53.04640625 125.61648437 53.0703125 126.44921875 C53.08835937 127.51785156 53.10640625 128.58648437 53.125 129.6875 C53.14820313 130.74324219 53.17140625 131.79898438 53.1953125 132.88671875 C52.99858729 136.02251859 52.33057654 138.17645373 51 141 C48.03 141 45.06 141 42 141 C41.67 140.34 41.34 139.68 41 139 C40.62875 138.46375 40.2575 137.9275 39.875 137.375 C38.5352182 133.73844939 39.3673557 130.79586579 40 127 C37.9254644 125.7763932 37.9254644 125.7763932 35 126 C33.19765461 126.96416201 33.19765461 126.96416201 32 129 C31.62355152 131.62939205 31.39866913 134.05072472 31.3125 136.6875 C31.27833984 137.38939453 31.24417969 138.09128906 31.20898438 138.81445312 C31.12670053 140.54241387 31.0616676 142.27118072 31 144 C31.66 144.33 32.32 144.66 33 145 C32.67 145.66 32.34 146.32 32 147 C32.66 147 33.32 147 34 147 C34.84069415 148.60032137 35.67231505 150.20541171 36.5 151.8125 C36.9640625 152.70582031 37.428125 153.59914062 37.90625 154.51953125 C39 157 39 157 39 160 C39.474375 160.433125 39.94875 160.86625 40.4375 161.3125 C42.67504338 163.72904685 42.63218019 165.75092497 43 169 C43.226875 170.299375 43.45375 171.59875 43.6875 172.9375 C44.19571649 177.13230279 43.59721428 180.08682502 42 184 C41.01 184.33 40.02 184.66 39 185 C39 185.99 39 186.98 39 188 C37.68 188.33 36.36 188.66 35 189 C35 189.66 35 190.32 35 191 C31.25 192.125 31.25 192.125 29 191 C28.67 191.66 28.34 192.32 28 193 C25.36 193 22.72 193 20 193 C20 192.34 20 191.68 20 191 C19.01 191.33 18.02 191.66 17 192 C16.2575 191.21625 15.515 190.4325 14.75 189.625 C12.30426365 186.96419305 12.30426365 186.96419305 9.8125 186.125 C7.3904864 184.62168121 6.95058692 182.91320344 6.3125 180.20703125 C5.5090111 174.53239091 4.75273832 168.87089251 8 164 C8.6837045 162.67532254 9.34964186 161.34136367 10 160 C12 156 12 156 13 154.0625 C15.2781401 149.36383605 16.38641254 145.21549339 17 140 C17.66 140 18.32 140 19 140 C17.54761094 130.7313504 17.54761094 130.7313504 12.0625 123.625 C9.72116997 122.80666174 9.72116997 122.80666174 6 123 C5.34 124.98 4.68 126.96 4 129 C4.66 129 5.32 129 6 129 C7.42099386 132.9787828 8.62475997 136.77854968 9 141 C7.15306876 143.77039685 5.9687421 145.51562895 3 147 C-1.05142119 147.25860135 -2.54337669 147.30441554 -6 145 C-6.328125 142.03125 -6.328125 142.03125 -6.25 138.5 C-6.23453125 137.3346875 -6.2190625 136.169375 -6.203125 134.96875 C-6 132 -6 132 -5 130 C-4.34 130 -3.68 130 -3 130 C-3.86262414 122.52392411 -5.29473549 119.02606636 -11 114 C-13.06874034 113.3574765 -13.06874034 113.3574765 -15 113 C-17.4573828 111.01519082 -18.87366979 108.94578671 -20 106 C-20.125 103.25 -20.125 103.25 -20 101 C-20.66 101 -21.32 101 -22 101 C-22 97.7 -22 94.4 -22 91 C-22.66 90.67 -23.32 90.34 -24 90 C-23.67 89.34 -23.34 88.68 -23 88 C-23.66 88 -24.32 88 -25 88 C-25.2475 87.0925 -25.495 86.185 -25.75 85.25 C-27.08534991 81.77809025 -28.08719466 80.26551526 -31 78 C-32.03125 77.67 -33.0625 77.34 -34.125 77 C-37 76 -37 76 -38.15380859 74.30371094 C-39.18473744 71.49706218 -39.32257625 69.12917583 -39.4140625 66.140625 C-39.47207031 64.46806641 -39.47207031 64.46806641 -39.53125 62.76171875 C-39.5621875 61.60285156 -39.593125 60.44398437 -39.625 59.25 C-39.66367188 58.07566406 -39.70234375 56.90132812 -39.7421875 55.69140625 C-39.8363982 52.79442732 -39.92201602 49.89745374 -40 47 C-38.02 46.34 -36.04 45.68 -34 45 C-34 44.34 -34 43.68 -34 43 C-31.525 42.505 -31.525 42.505 -29 42 C-29 41.34 -29 40.68 -29 40 C-28.030625 39.71125 -27.06125 39.4225 -26.0625 39.125 C-22.89335797 38.35785318 -22.89335797 38.35785318 -22 36 C-20.35 36 -18.7 36 -17 36 C-17.01047363 35.32420898 -17.02094727 34.64841797 -17.03173828 33.95214844 C-17.07335976 30.88480358 -17.09934573 27.81751822 -17.125 24.75 C-17.14175781 23.68652344 -17.15851563 22.62304688 -17.17578125 21.52734375 C-17.18222656 20.50253906 -17.18867187 19.47773437 -17.1953125 18.421875 C-17.20578613 17.47924805 -17.21625977 16.53662109 -17.22705078 15.56542969 C-16.98841294 12.86907872 -16.42869012 11.27994732 -15 9 C-11.98210322 6.70930727 -8.5871135 5.1957045 -5 4 C-1.85440122 2.70864019 -1.85440122 2.70864019 0 0 Z M3 48 C2.97494385 48.71655762 2.9498877 49.43311523 2.92407227 50.17138672 C2.80830249 53.40611514 2.68549031 56.64053841 2.5625 59.875 C2.52318359 61.00292969 2.48386719 62.13085938 2.44335938 63.29296875 C2.40146484 64.36933594 2.35957031 65.44570312 2.31640625 66.5546875 C2.27974854 67.54968262 2.24309082 68.54467773 2.20532227 69.56982422 C2 72 2 72 1 74 C2.32 73.67 3.64 73.34 5 73 C5.33 64.75 5.66 56.5 6 48 C5.01 48 4.02 48 3 48 Z M46 48 C46.33 56.25 46.66 64.5 47 73 C47.66 73 48.32 73 49 73 C49 64.75 49 56.5 49 48 C48.01 48 47.02 48 46 48 Z M-6 77 C-6.33 77.66 -6.66 78.32 -7 79 C-6.01 78.67 -5.02 78.34 -4 78 C-4.66 77.67 -5.32 77.34 -6 77 Z M-11 80 C-11.33 80.66 -11.66 81.32 -12 82 C-11.01 81.67 -10.02 81.34 -9 81 C-9.66 80.67 -10.32 80.34 -11 80 Z M-16 83 C-16 83.99 -16 84.98 -16 86 C-15.34 85.01 -14.68 84.02 -14 83 C-14.66 83 -15.32 83 -16 83 Z M25 85 C25 89.62 25 94.24 25 99 C25.66 99 26.32 99 27 99 C27 94.38 27 89.76 27 85 C26.34 85 25.68 85 25 85 Z " fill="#422D05" transform="translate(130,60)"/>
<path d="M0 0 C3.99241538 -0.18147343 6.56125016 -0.0632499 10 2 C11.0209375 2.495 11.0209375 2.495 12.0625 3 C14 4 14 4 17 6 C17.66 6.33 18.32 6.66 19 7 C19.99 7.66 20.98 8.32 22 9 C22.66 9.33 23.32 9.66 24 10 C24.495 10.99 24.495 10.99 25 12 C25.99 11.67 26.98 11.34 28 11 C28 10.34 28 9.68 28 9 C28.99 8.67 29.98 8.34 31 8 C33.16532528 7.05267019 34.7601742 6.2398258 36.4375 4.5625 C39.2411554 1.7588446 41.36499947 0.02320979 45.4765625 -0.03515625 C52.54542779 0.54542779 52.54542779 0.54542779 55 3 C57.77260299 4.93798263 57.77260299 4.93798263 60 6 C60.99 6.66 61.98 7.32 63 8 C63.99 8.495 63.99 8.495 65 9 C67.35132371 10.77658758 67.94423841 11.62825606 68.38818359 14.58789062 C68.39325928 16.10672852 68.39325928 16.10672852 68.3984375 17.65625 C68.40230469 18.76097656 68.40617187 19.86570312 68.41015625 21.00390625 C68.39855469 22.15761719 68.38695312 23.31132813 68.375 24.5 C68.38660156 25.65371094 68.39820313 26.80742188 68.41015625 27.99609375 C68.40628906 29.10082031 68.40242188 30.20554687 68.3984375 31.34375 C68.39505371 32.35630859 68.39166992 33.36886719 68.38818359 34.41210938 C67.94243329 37.38377804 67.30982049 38.17041096 65 40 C64.443125 40.556875 63.88625 41.11375 63.3125 41.6875 C62.879375 42.120625 62.44625 42.55375 62 43 C61.67 42.34 61.34 41.68 61 41 C60.01 41.495 60.01 41.495 59 42 C59 42.99 59 43.98 59 45 C57.515 44.505 57.515 44.505 56 44 C55.01 44.495 55.01 44.495 54 45 C54 45.99 54 46.98 54 48 C52.68 48.33 51.36 48.66 50 49 C50 56.92 50 64.84 50 73 C49.67 73 49.34 73 49 73 C49 64.75 49 56.5 49 48 C47.515 48.495 47.515 48.495 46 49 C45.98541748 49.71655762 45.97083496 50.43311523 45.95581055 51.17138672 C45.88151 54.40647983 45.78479139 57.64052019 45.6875 60.875 C45.66494141 62.00292969 45.64238281 63.13085938 45.61914062 64.29296875 C45.58369141 65.36933594 45.54824219 66.44570312 45.51171875 67.5546875 C45.48553467 68.54968262 45.45935059 69.54467773 45.43237305 70.56982422 C45.28968994 71.37178223 45.14700684 72.17374023 45 73 C44.01 73.66 43.02 74.32 42 75 C42.99 75.66 43.98 76.32 45 77 C42.54220129 78.48006127 40.08378912 79.95908574 37.625 81.4375 C36.92632812 81.85837891 36.22765625 82.27925781 35.5078125 82.71289062 C34.50234375 83.31713867 34.50234375 83.31713867 33.4765625 83.93359375 C32.85861816 84.30540771 32.24067383 84.67722168 31.60400391 85.06030273 C30.42685882 85.749927 29.22024659 86.3898767 28 87 C27.67 86.34 27.34 85.68 27 85 C24.70576808 83.97539157 22.36560544 83.12926796 19.99755859 82.29199219 C14.40043637 80.18206926 8.69111884 77.88581212 5 73 C3.41760137 66.75727794 4.24644436 60.51962167 4.890625 54.19140625 C5.19546605 51.41933177 5.19546605 51.41933177 5 49 C2.76445275 46.77208166 2.76445275 46.77208166 0 46 C-0.33 45.34 -0.66 44.68 -1 44 C-1.763125 44.061875 -2.52625 44.12375 -3.3125 44.1875 C-6 44 -6 44 -7.6875 42.625 C-8.120625 42.08875 -8.55375 41.5525 -9 41 C-10.9254644 38.7763932 -10.9254644 38.7763932 -14 38 C-14.99 37.34 -15.98 36.68 -17 36 C-17.37231445 33.72509766 -17.37231445 33.72509766 -17.36328125 30.9140625 C-17.36263672 29.90085937 -17.36199219 28.88765625 -17.36132812 27.84375 C-17.34521484 26.7815625 -17.32910156 25.719375 -17.3125 24.625 C-17.31572266 23.57054688 -17.31894531 22.51609375 -17.32226562 21.4296875 C-17.26091055 12.63917876 -17.26091055 12.63917876 -15 9 C-11.98210322 6.70930727 -8.5871135 5.1957045 -5 4 C-1.85440122 2.70864019 -1.85440122 2.70864019 0 0 Z " fill="#422D05" transform="translate(130,60)"/>
<path d="M0 0 C0.89847656 0.40347656 1.79695313 0.80695313 2.72265625 1.22265625 C3.67785156 1.59519531 4.63304688 1.96773438 5.6171875 2.3515625 C9.01151205 4.01918915 11.22799531 5.35079572 13.72265625 8.22265625 C15.11153133 13.76456681 14.34735835 19.6129576 13.72265625 25.22265625 C11.48086248 26.59230833 9.23093287 27.94318433 6.97265625 29.28515625 C6.02132812 29.87006836 6.02132812 29.87006836 5.05078125 30.46679688 C0.22763327 33.30542043 0.22763327 33.30542043 -2.3046875 32.89038086 C-7.68783257 31.06823955 -12.23974583 29.35858228 -16.27734375 25.22265625 C-18.2400293 19.86624634 -18.04180167 13.615497 -16.27734375 8.22265625 C-13.71481929 5.03551645 -11.01188198 3.74670052 -7.27734375 2.22265625 C-5.91609375 1.23265625 -5.91609375 1.23265625 -4.52734375 0.22265625 C-2.27734375 -0.77734375 -2.27734375 -0.77734375 0 0 Z " fill="#FAC01B" transform="translate(113.27734375,103.77734375)"/>
<path d="M0 0 C2.85919829 1.83004167 4.7786567 3.10266036 5.61962891 6.49560547 C6.09511481 11.53356986 5.68356535 16.48419598 5.125 21.5 C2.92988686 22.901264 0.72319045 24.26961427 -1.5 25.625 C-2.11746094 26.02332031 -2.73492187 26.42164063 -3.37109375 26.83203125 C-6.57917071 28.75687743 -8.27262959 29.62122704 -12 28.87109375 C-12.94875 28.41863281 -13.8975 27.96617187 -14.875 27.5 C-15.79023438 27.19964844 -16.70546875 26.89929688 -17.6484375 26.58984375 C-20.7626949 25.21040541 -22.61913993 24.07995338 -24.875 21.5 C-26.82848091 16.10142116 -26.93785056 9.87388006 -24.875 4.5 C-17.45884795 -3.45879732 -9.71806873 -4.95121117 0 0 Z " fill="#FAC01B" transform="translate(209.875,107.5)"/>
<path d="M0 0 C0.94875 0.45246094 1.8975 0.90492187 2.875 1.37109375 C3.79023438 1.67144531 4.70546875 1.97179687 5.6484375 2.28125 C8.75955084 3.6592957 10.61729573 4.79816284 12.875 7.37109375 C14.89721269 12.77735758 15.02375426 18.99593854 12.875 24.37109375 C9.31922142 28.87585888 4.2386545 31.59501014 -1.125 33.37109375 C-3.71875 32.73828125 -3.71875 32.73828125 -6.125 31.37109375 C-7.08019531 30.99855469 -8.03539062 30.62601563 -9.01953125 30.2421875 C-12.4138558 28.57456085 -14.63033906 27.24295428 -17.125 24.37109375 C-18.51387508 18.82918319 -17.7497021 12.9807924 -17.125 7.37109375 C-14.92988686 5.96982975 -12.72319045 4.60147948 -10.5 3.24609375 C-9.88253906 2.84777344 -9.26507813 2.44945313 -8.62890625 2.0390625 C-5.42082929 0.11421632 -3.72737041 -0.75013329 0 0 Z " fill="#F9C01B" transform="translate(158.125,104.62890625)"/>
<path d="M0 0 C0.78375 0.45117188 1.5675 0.90234375 2.375 1.3671875 C3.25800781 1.6559375 4.14101562 1.9446875 5.05078125 2.2421875 C8.28410228 3.62173781 10.10502048 4.64321207 12.375 7.3671875 C13.67523472 13.2456541 12.93502131 19.43096158 12.375 25.3671875 C10.15768064 26.76538888 7.92961846 28.13482108 5.6875 29.4921875 C5.06166016 29.89050781 4.43582031 30.28882812 3.79101562 30.69921875 C-0.95116457 33.52962997 -0.95116457 33.52962997 -4.25 32.734375 C-5.425625 32.05761719 -5.425625 32.05761719 -6.625 31.3671875 C-7.50800781 31.0784375 -8.39101562 30.7896875 -9.30078125 30.4921875 C-12.53410228 29.11263719 -14.35502048 28.09116293 -16.625 25.3671875 C-17.92523472 19.4887209 -17.18502131 13.30341342 -16.625 7.3671875 C-14.40768064 5.96898612 -12.17961846 4.59955392 -9.9375 3.2421875 C-9.31166016 2.84386719 -8.68582031 2.44554688 -8.04101562 2.03515625 C-3.29883543 -0.79525497 -3.29883543 -0.79525497 0 0 Z " fill="#FCC31B" transform="translate(136.625,67.6328125)"/>
<path d="M0 0 C0.78375 0.43957031 1.5675 0.87914062 2.375 1.33203125 C3.25800781 1.62078125 4.14101562 1.90953125 5.05078125 2.20703125 C8.25434232 3.57388397 10.0808023 4.67963168 12.375 7.33203125 C14.34935237 13.04511292 14.45053351 19.64153143 12.375 25.33203125 C9.18416957 29.61959023 4.45947546 31.96536131 -0.625 33.33203125 C-3.71875 32.6328125 -3.71875 32.6328125 -6.625 31.33203125 C-7.54023438 31.03167969 -8.45546875 30.73132813 -9.3984375 30.421875 C-12.50955084 29.0438293 -14.36729573 27.90496216 -16.625 25.33203125 C-18.64721269 19.92576742 -18.77375426 13.70718646 -16.625 8.33203125 C-13.02775955 3.77473868 -5.91835759 -1.50601064 0 0 Z " fill="#FBC11B" transform="translate(179.625,140.66796875)"/>
<path d="M0 0 C2.52978798 1.68967434 5.02793918 3.40293918 7.1875 5.5625 C7.26075168 8.42517567 7.27988205 11.263219 7.25 14.125 C7.24548828 14.93130859 7.24097656 15.73761719 7.23632812 16.56835938 C7.22450518 18.56643756 7.20656914 20.56447783 7.1875 22.5625 C4.99238686 23.963764 2.78569045 25.33211427 0.5625 26.6875 C-0.05496094 27.08582031 -0.67242187 27.48414063 -1.30859375 27.89453125 C-4.53448415 29.83006549 -6.22085182 30.68112253 -9.96875 29.9296875 C-10.9071875 29.47851562 -11.845625 29.02734375 -12.8125 28.5625 C-13.65554687 28.27375 -14.49859375 27.985 -15.3671875 27.6875 C-18.31885228 26.25638981 -19.86044881 25.24178594 -21.8125 22.5625 C-22.96926704 16.65578477 -22.31781858 10.51402991 -21.8125 4.5625 C-14.33420523 -1.3473986 -8.83874749 -5.61395505 0 0 Z " fill="#FCC31B" transform="translate(141.8125,143.4375)"/>
<path d="M0 0 C1.80895202 1.15048369 3.58717229 2.35253608 5.3125 3.625 C6.3025 4.285 7.2925 4.945 8.3125 5.625 C8.65307617 7.50439453 8.65307617 7.50439453 8.60546875 9.7578125 C8.59580078 10.56347656 8.58613281 11.36914062 8.57617188 12.19921875 C8.55103516 13.04097656 8.52589844 13.88273437 8.5 14.75 C8.47969727 16.02423828 8.47969727 16.02423828 8.45898438 17.32421875 C8.42358219 19.42474837 8.36977401 21.52495293 8.3125 23.625 C-0.67784953 30.30126548 -0.67784953 30.30126548 -5.6875 31.625 C-10.42274232 30.63033457 -13.82555336 28.47326338 -17.6875 25.625 C-18.6775 24.965 -19.6675 24.305 -20.6875 23.625 C-21.02807617 21.74560547 -21.02807617 21.74560547 -20.98046875 19.4921875 C-20.97080078 18.68652344 -20.96113281 17.88085938 -20.95117188 17.05078125 C-20.92603516 16.20902344 -20.90089844 15.36726563 -20.875 14.5 C-20.86146484 13.65050781 -20.84792969 12.80101563 -20.83398438 11.92578125 C-20.79858219 9.82525163 -20.74477401 7.72504707 -20.6875 5.625 C-7.74868328 -3.98341123 -7.74868328 -3.98341123 0 0 Z " fill="#FCC21B" transform="translate(183.6875,69.375)"/>
<path d="M0 0 C1.98683497 2.98025245 3.03022142 5.58310892 4.25 8.9375 C5.99575453 13.61195316 7.96475318 17.97366849 10.3125 22.375 C12.5664277 26.80131796 14.00907802 29.95460991 13 35 C10.74665796 39.33976986 8.54633071 42.09688482 4 44 C-0.31807946 44.54957375 -2.44328894 44.2941115 -6.3125 42.25 C-9.3384031 39.71668578 -10.67762569 37.86819293 -11.34912109 33.97680664 C-11.49825384 27.53825873 -9.60111719 23.06564799 -6.625 17.4375 C-3.63523068 11.64949347 -1.33386846 6.39817126 0 0 Z " fill="#FBC21B" transform="translate(154,202)"/>
<path d="M0 0 C1.9451 2.91765 2.45276317 4.62537285 3 8 C1.35 8.33 -0.3 8.66 -2 9 C-1.34 6.03 -0.68 3.06 0 0 Z " fill="#E5C41D" transform="translate(154,202)"/>
<path d="M0 0 C0.66 0.33 1.32 0.66 2 1 C1.01 1 0.02 1 -1 1 C-0.67 0.67 -0.34 0.34 0 0 Z " fill="#323200" transform="translate(156,70)"/>
<path d="M0 0 C0.99 0.495 0.99 0.495 2 1 C1.01 1.495 1.01 1.495 0 2 C0 1.34 0 0.68 0 0 Z " fill="#542A00" transform="translate(113,70)"/>
<path d="" fill="#3F0000" transform="translate(0,0)"/>
<path d="" fill="#000000" transform="translate(0,0)"/>
<path d="" fill="#000000" transform="translate(0,0)"/>
<path d="M0 0 C2 1 2 1 2 1 Z " fill="#2A0000" transform="translate(94,104)"/>
<path d="M0 0 C2 1 2 1 2 1 Z " fill="#2A0000" transform="translate(214,103)"/>
<path d="M0 0 C2 1 2 1 2 1 Z " fill="#2A2A00" transform="translate(207,99)"/>
<path d="M0 0 C2 1 2 1 2 1 Z " fill="#2A2A00" transform="translate(195,69)"/>
<path d="M0 0 C2 1 2 1 2 1 Z " fill="#2A0000" transform="translate(149,67)"/>
<path d="M0 0 C2 1 2 1 2 1 Z " fill="#3F0000" transform="translate(137,60)"/>
<path d="" fill="#7F7F7F" transform="translate(0,0)"/>
<path d="" fill="#7F4000" transform="translate(0,0)"/>
<path d="" fill="#AA5500" transform="translate(0,0)"/>
<path d="" fill="#7F4040" transform="translate(0,0)"/>
<path d="" fill="#996633" transform="translate(0,0)"/>
<path d="" fill="#7F4040" transform="translate(0,0)"/>
<path d="" fill="#666633" transform="translate(0,0)"/>
<path d="" fill="#7F4040" transform="translate(0,0)"/>
<path d="" fill="#404000" transform="translate(0,0)"/>
<path d="" fill="#663300" transform="translate(0,0)"/>
<path d="" fill="#AA5500" transform="translate(0,0)"/>
<path d="" fill="#7F4000" transform="translate(0,0)"/>
<path d="" fill="#404040" transform="translate(0,0)"/>
<path d="" fill="#663300" transform="translate(0,0)"/>
<path d="" fill="#663300" transform="translate(0,0)"/>
<path d="" fill="#000000" transform="translate(0,0)"/>
<path d="" fill="#666600" transform="translate(0,0)"/>
<path d="" fill="#7F4000" transform="translate(0,0)"/>
<path d="" fill="#7F4000" transform="translate(0,0)"/>
<path d="" fill="#000000" transform="translate(0,0)"/>
<path d="" fill="#555555" transform="translate(0,0)"/>
<path d="" fill="#000000" transform="translate(0,0)"/>
<path d="" fill="#555500" transform="translate(0,0)"/>
<path d="" fill="#7F7F00" transform="translate(0,0)"/>
<path d="" fill="#000000" transform="translate(0,0)"/>
<path d="" fill="#404000" transform="translate(0,0)"/>
<path d="" fill="#FF0000" transform="translate(0,0)"/>
<path d="" fill="#AA5500" transform="translate(0,0)"/>
<path d="" fill="#7F4000" transform="translate(0,0)"/>
<path d="" fill="#7F4000" transform="translate(0,0)"/>
<path d="" fill="#555555" transform="translate(0,0)"/>
<path d="" fill="#555500" transform="translate(0,0)"/>
<path d="" fill="#7F7F00" transform="translate(0,0)"/>
<path d="" fill="#AA5500" transform="translate(0,0)"/>
<path d="" fill="#404000" transform="translate(0,0)"/>
<path d="" fill="#7F0000" transform="translate(0,0)"/>
<path d="" fill="#7F4000" transform="translate(0,0)"/>
<path d="" fill="#555555" transform="translate(0,0)"/>
<path d="" fill="#7F7F00" transform="translate(0,0)"/>
<path d="" fill="#404040" transform="translate(0,0)"/>
<path d="" fill="#404040" transform="translate(0,0)"/>
<path d="" fill="#7F4040" transform="translate(0,0)"/>
<path d="" fill="#000000" transform="translate(0,0)"/>
<path d="" fill="#000000" transform="translate(0,0)"/>
<path d="" fill="#000000" transform="translate(0,0)"/>
<path d="" fill="#404000" transform="translate(0,0)"/>
<path d="" fill="#7F4040" transform="translate(0,0)"/>
<path d="" fill="#552A00" transform="translate(0,0)"/>
<path d="" fill="#333300" transform="translate(0,0)"/>
<path d="" fill="#663300" transform="translate(0,0)"/>
<path d="" fill="#663300" transform="translate(0,0)"/>
<path d="" fill="#7F4040" transform="translate(0,0)"/>
<path d="" fill="#555555" transform="translate(0,0)"/>
<path d="" fill="#550000" transform="translate(0,0)"/>
<path d="" fill="#7F4040" transform="translate(0,0)"/>
<path d="" fill="#552A2A" transform="translate(0,0)"/>
<path d="" fill="#7F4040" transform="translate(0,0)"/>
<path d="" fill="#AA5500" transform="translate(0,0)"/>
<path d="" fill="#404040" transform="translate(0,0)"/>
<path d="" fill="#555500" transform="translate(0,0)"/>
<path d="" fill="#404040" transform="translate(0,0)"/>
<path d="" fill="#333300" transform="translate(0,0)"/>
<path d="" fill="#555500" transform="translate(0,0)"/>
<path d="" fill="#555500" transform="translate(0,0)"/>
<path d="" fill="#555555" transform="translate(0,0)"/>
<path d="" fill="#000000" transform="translate(0,0)"/>
<path d="" fill="#404040" transform="translate(0,0)"/>
<path d="" fill="#7F7F40" transform="translate(0,0)"/>
<path d="" fill="#663300" transform="translate(0,0)"/>
<path d="" fill="#404000" transform="translate(0,0)"/>
<path d="" fill="#404040" transform="translate(0,0)"/>
<path d="" fill="#404040" transform="translate(0,0)"/>
<path d="" fill="#550000" transform="translate(0,0)"/>
<path d="" fill="#404000" transform="translate(0,0)"/>
<path d="" fill="#555555" transform="translate(0,0)"/>
<path d="" fill="#555555" transform="translate(0,0)"/>
<path d="" fill="#7F4040" transform="translate(0,0)"/>
<path d="" fill="#404000" transform="translate(0,0)"/>
<path d="" fill="#404000" transform="translate(0,0)"/>
<path d="" fill="#7F7F40" transform="translate(0,0)"/>
<path d="" fill="#666633" transform="translate(0,0)"/>
<path d="" fill="#555555" transform="translate(0,0)"/>
<path d="" fill="#FFFF00" transform="translate(0,0)"/>
<path d="" fill="#FFFF00" transform="translate(0,0)"/>
<path d="" fill="#000000" transform="translate(0,0)"/>
<path d="" fill="#FFFF00" transform="translate(0,0)"/>
</svg>
