<?xml version="1.0" encoding="UTF-8"?>
<svg version="1.1" xmlns="http://www.w3.org/2000/svg" width="312" height="312">
<path d="M0 0 C3.99241538 -0.18147343 6.56125016 -0.0632499 10 2 C11.0209375 2.495 11.0209375 2.495 12.0625 3 C14 4 14 4 17 6 C17.66 6.33 18.32 6.66 19 7 C19.99 7.66 20.98 8.32 22 9 C22.66 9.33 23.32 9.66 24 10 C24.495 10.99 24.495 10.99 25 12 C25.99 11.67 26.98 11.34 28 11 C28 10.34 28 9.68 28 9 C28.99 8.67 29.98 8.34 31 8 C33.24090688 7.01960324 34.77265405 6.24711516 36.4375 4.4375 C38.49199044 2.54736879 40.27994277 2.3675753 43 2 C43 1.34 43 0.68 43 0 C44.62580966 0.11398665 46.25067157 0.24155659 47.875 0.375 C48.77992188 0.44460937 49.68484375 0.51421875 50.6171875 0.5859375 C53 1 53 1 55 3 C55.99 3.33 56.98 3.66 58 4 C58.99 4.99 58.99 4.99 60 6 C62.77260299 7.93798263 62.77260299 7.93798263 65 9 C67.3097569 10.76320293 67.93823627 11.63663677 68.43237305 14.54370117 C68.45855713 15.53345947 68.48474121 16.52321777 68.51171875 17.54296875 C68.54716797 18.61611328 68.58261719 19.68925781 68.61914062 20.79492188 C68.64169922 21.91447266 68.66425781 23.03402344 68.6875 24.1875 C68.72166016 25.31865234 68.75582031 26.44980469 68.79101562 27.61523438 C68.87356314 30.4100574 68.94269182 33.20456398 69 36 C71.64 36.66 74.28 37.32 77 38 C77 38.66 77 39.32 77 40 C79.31 40.66 81.62 41.32 84 42 C84 42.66 84 43.32 84 44 C84.804375 44.12375 85.60875 44.2475 86.4375 44.375 C87.283125 44.58125 88.12875 44.7875 89 45 C89.33 45.66 89.66 46.32 90 47 C90.66 47 91.32 47 92 47 C91.89008359 51.08388613 91.75946145 55.16685411 91.625 59.25 C91.5940625 60.40886719 91.563125 61.56773438 91.53125 62.76171875 C91.47324219 64.43427734 91.47324219 64.43427734 91.4140625 66.140625 C91.3826416 67.16704102 91.3512207 68.19345703 91.31884766 69.25097656 C90.9983467 72.0142543 90.49957865 73.67659889 89 76 C86.58037628 77.71920633 84.76772379 78.89032517 81.8125 79.3125 C81.214375 79.539375 80.61625 79.76625 80 80 C78.82917122 82.92914165 78.82917122 82.92914165 78 86 C77.34 86.66 76.68 87.32 76 88 C76 88.78375 76 89.5675 76 90.375 C76 93.27111336 75.26899189 94.46201623 74 97 C73.83249586 99.66709069 73.83249586 99.66709069 74 102 C73.34 102 72.68 102 72 102 C72.020625 103.051875 72.04125 104.10375 72.0625 105.1875 C72.01064752 108.35050152 71.66185952 110.93889974 71 114 C71 115.32 71 116.64 71 118 C71.66 118.33 72.32 118.66 73 119 C73.33 119.66 73.66 120.32 74 121 C74.37125 121.53625 74.7425 122.0725 75.125 122.625 C76.49156818 126.33425649 75.75946944 129.13936369 75 133 C74.34 133.33 73.68 133.66 73 134 C72.4225 134.350625 71.845 134.70125 71.25 135.0625 C68.33821257 136.27574476 66.12789745 136.26620404 63 136 C61.515 135.01 61.515 135.01 60 134 C59.63671875 131.7578125 59.63671875 131.7578125 59.6875 129.125 C59.69136719 128.26132813 59.69523437 127.39765625 59.69921875 126.5078125 C60.01356035 123.88693841 60.8179531 122.326419 62 120 C62 118.68 62 117.36 62 116 C60.35 116.33 58.7 116.66 57 117 C56.22227595 119.33317216 55.57584432 121.61435923 55 124 C54.34 124 53.68 124 53 124 C53.02320313 124.80824219 53.04640625 125.61648437 53.0703125 126.44921875 C53.08835937 127.51785156 53.10640625 128.58648437 53.125 129.6875 C53.14820313 130.74324219 53.17140625 131.79898438 53.1953125 132.88671875 C52.99858729 136.02251859 52.33057654 138.17645373 51 141 C48.03 141 45.06 141 42 141 C41.67 140.34 41.34 139.68 41 139 C40.62875 138.46375 40.2575 137.9275 39.875 137.375 C38.5352182 133.73844939 39.3673557 130.79586579 40 127 C37.99967627 125.99983813 36.16874252 125.50603992 34 125 C31.66609865 128.6715128 31.76335692 131.8450846 31.8125 136.125 C31.81894531 137.36507812 31.82539063 138.60515625 31.83203125 139.8828125 C31.78737405 142.90678112 31.78737405 142.90678112 33 145 C32.67 145.66 32.34 146.32 32 147 C32.66 147 33.32 147 34 147 C34.84069415 148.60032137 35.67231505 150.20541171 36.5 151.8125 C36.9640625 152.70582031 37.428125 153.59914062 37.90625 154.51953125 C39 157 39 157 39 160 C39.474375 160.433125 39.94875 160.86625 40.4375 161.3125 C43.82452255 164.97048435 43.16019966 171.01066105 43.1875 175.75 C43.20167969 176.87921875 43.21585937 178.0084375 43.23046875 179.171875 C43 182 43 182 41 184 C40.71125 184.66 40.4225 185.32 40.125 186 C38.72868529 188.48233727 37.59938212 188.92966618 35 190 C33.948125 190.5878125 33.948125 190.5878125 32.875 191.1875 C32.25625 191.455625 31.6375 191.72375 31 192 C30.34 191.67 29.68 191.34 29 191 C28.67 191.66 28.34 192.32 28 193 C26.5629191 193.05422947 25.12524538 193.09289723 23.6875 193.125 C22.88699219 193.14820313 22.08648437 193.17140625 21.26171875 193.1953125 C17.64505105 192.88299232 15.96749639 190.9666838 13.5 188.4375 C11.1747083 185.81609342 11.1747083 185.81609342 8 185 C5.62636293 179.25329973 5.33296498 173.16026461 6 167 C6.66 166.01 7.32 165.02 8 164 C8.6837045 162.67532254 9.34964186 161.34136367 10 160 C12 156 12 156 13 154.0625 C16.05279221 147.76611607 18.73825408 141.08723916 18 134 C16.06348595 128.24698241 16.06348595 128.24698241 12 124 C8.89160979 123.2730774 8.89160979 123.2730774 6 123 C5.34 124.98 4.68 126.96 4 129 C4.66 129 5.32 129 6 129 C8.10428384 134.12919186 8.21755666 138.5610835 8 144 C7.01 144.33 6.02 144.66 5 145 C5 145.66 5 146.32 5 147 C3.741875 147.04125 2.48375 147.0825 1.1875 147.125 C0.47980469 147.14820313 -0.22789062 147.17140625 -0.95703125 147.1953125 C-3 147 -3 147 -6 145 C-7.35282942 139.87014347 -7.6746779 134.72001982 -5 130 C-4.34 130 -3.68 130 -3 130 C-3.86262414 122.52392411 -5.29473549 119.02606636 -11 114 C-13.06874034 113.3574765 -13.06874034 113.3574765 -15 113 C-18.95886081 109.77426156 -19.24542385 105.85084667 -20 101 C-20.66 101 -21.32 101 -22 101 C-22 97.7 -22 94.4 -22 91 C-22.66 90.67 -23.32 90.34 -24 90 C-23.67 89.34 -23.34 88.68 -23 88 C-23.66 88 -24.32 88 -25 88 C-25.268125 87.071875 -25.53625 86.14375 -25.8125 85.1875 C-26.94352306 82.15159599 -27.46205303 80.87996072 -30 79 C-31.65816784 78.31246699 -33.32459336 77.64438717 -35 77 C-38.57500408 73.42499592 -39.26390582 71.16842569 -39.4140625 66.23828125 C-39.45273438 65.12001953 -39.49140625 64.00175781 -39.53125 62.84960938 C-39.5621875 61.68236328 -39.593125 60.51511719 -39.625 59.3125 C-39.66367188 58.13365234 -39.70234375 56.95480469 -39.7421875 55.74023438 C-39.83654391 52.82698023 -39.92213161 49.91373393 -40 47 C-38.81277344 46.55333984 -38.81277344 46.55333984 -37.6015625 46.09765625 C-35.01004391 45.00423775 -33.90121829 43.9876373 -32 42 C-30.515 41.505 -30.515 41.505 -29 41 C-28.34 40.505 -27.68 40.01 -27 39.5 C-24.15176619 37.36382464 -20.58807414 36 -17 36 C-17.01047363 35.32420898 -17.02094727 34.64841797 -17.03173828 33.95214844 C-17.07335976 30.88480358 -17.09934573 27.81751822 -17.125 24.75 C-17.14175781 23.68652344 -17.15851563 22.62304688 -17.17578125 21.52734375 C-17.18222656 20.50253906 -17.18867187 19.47773437 -17.1953125 18.421875 C-17.20578613 17.47924805 -17.21625977 16.53662109 -17.22705078 15.56542969 C-16.98720342 12.85541245 -16.51717813 11.24971984 -15 9 C-12.375 8.25 -12.375 8.25 -10 8 C-10 7.34 -10 6.68 -10 6 C-8.35 5.67 -6.7 5.34 -5 5 C-5 4.34 -5 3.68 -5 3 C-3.35 2.67 -1.7 2.34 0 2 C0 1.34 0 0.68 0 0 Z M3 48 C2.97494385 48.71655762 2.9498877 49.43311523 2.92407227 50.17138672 C2.80830249 53.40611514 2.68549031 56.64053841 2.5625 59.875 C2.52318359 61.00292969 2.48386719 62.13085938 2.44335938 63.29296875 C2.40146484 64.36933594 2.35957031 65.44570312 2.31640625 66.5546875 C2.27974854 67.54968262 2.24309082 68.54467773 2.20532227 69.56982422 C2 72 2 72 1 74 C2.32 73.67 3.64 73.34 5 73 C5.33 64.75 5.66 56.5 6 48 C5.01 48 4.02 48 3 48 Z M46 48 C46.33 56.25 46.66 64.5 47 73 C47.66 73 48.32 73 49 73 C49 64.75 49 56.5 49 48 C48.01 48 47.02 48 46 48 Z M-6 77 C-6.33 77.66 -6.66 78.32 -7 79 C-6.01 78.67 -5.02 78.34 -4 78 C-4.66 77.67 -5.32 77.34 -6 77 Z M-11 80 C-11.33 80.66 -11.66 81.32 -12 82 C-11.01 81.67 -10.02 81.34 -9 81 C-9.66 80.67 -10.32 80.34 -11 80 Z M-16 83 C-16 83.99 -16 84.98 -16 86 C-15.34 85.01 -14.68 84.02 -14 83 C-14.66 83 -15.32 83 -16 83 Z M25 85 C25 89.62 25 94.24 25 99 C25.66 99 26.32 99 27 99 C27 94.38 27 89.76 27 85 C26.34 85 25.68 85 25 85 Z " fill="#3D2A04" transform="translate(130,60)"/>
<path d="M0 0 C3.99241538 -0.18147343 6.56125016 -0.0632499 10 2 C11.0209375 2.495 11.0209375 2.495 12.0625 3 C14 4 14 4 17 6 C17.66 6.33 18.32 6.66 19 7 C19.99 7.66 20.98 8.32 22 9 C22.66 9.33 23.32 9.66 24 10 C24.495 10.99 24.495 10.99 25 12 C25.99 11.67 26.98 11.34 28 11 C28 10.34 28 9.68 28 9 C28.99 8.67 29.98 8.34 31 8 C33.24090688 7.01960324 34.77265405 6.24711516 36.4375 4.4375 C38.49199044 2.54736879 40.27994277 2.3675753 43 2 C43 1.34 43 0.68 43 0 C44.62580966 0.11398665 46.25067157 0.24155659 47.875 0.375 C48.77992188 0.44460937 49.68484375 0.51421875 50.6171875 0.5859375 C53 1 53 1 55 3 C55.99 3.33 56.98 3.66 58 4 C58.99 4.99 58.99 4.99 60 6 C62.77260299 7.93798263 62.77260299 7.93798263 65 9 C67.36575862 10.7817987 67.94645336 11.62552464 68.37231445 14.60375977 C68.3693335 15.62268311 68.36635254 16.64160645 68.36328125 17.69140625 C68.36231445 19.35526367 68.36231445 19.35526367 68.36132812 21.05273438 C68.34521484 22.21095703 68.32910156 23.36917969 68.3125 24.5625 C68.31572266 25.72458984 68.31894531 26.88667969 68.32226562 28.08398438 C68.2727101 35.82816128 67.4338942 37.5661058 62 43 C61.67 42.34 61.34 41.68 61 41 C60.67 41.99 60.34 42.98 60 44 C58.02 44.33 56.04 44.66 54 45 C53.67 45.99 53.34 46.98 53 48 C52.34 48 51.68 48 51 48 C50.505 48.99 50.505 48.99 50 50 C49.67 49.34 49.34 48.68 49 48 C48.01 48.495 48.01 48.495 47 49 C47.03665771 49.70084717 47.07331543 50.40169434 47.11108398 51.1237793 C47.25693947 54.31123595 47.3477321 57.49799146 47.4375 60.6875 C47.52547852 62.34168945 47.52547852 62.34168945 47.61523438 64.02929688 C47.78554728 72.08266439 47.78554728 72.08266439 45.44580078 74.81494141 C43.53515625 76.14453125 43.53515625 76.14453125 40 78 C39.67 78.66 39.34 79.32 39 80 C36.69 80 34.38 80 32 80 C32 80.66 32 81.32 32 82 C30 84 30 84 27 85 C26.01 84.505 26.01 84.505 25 84 C23.865625 83.71125 22.73125 83.4225 21.5625 83.125 C18.1338764 82.04227676 17.28197557 81.49930657 15 79 C14.34 78.835 13.68 78.67 13 78.5 C10.54458029 77.88614507 9.76233218 76.76233218 8 75 C5.89667109 74.28552357 5.89667109 74.28552357 4 74 C4.33 73.67 4.66 73.34 5 73 C5.08726223 71.21928754 5.10699041 69.4351686 5.09765625 67.65234375 C5.09282227 66.03295898 5.09282227 66.03295898 5.08789062 64.38085938 C5.07951172 63.24455078 5.07113281 62.10824219 5.0625 60.9375 C5.05798828 59.79732422 5.05347656 58.65714844 5.04882812 57.48242188 C5.03699747 54.65489649 5.0205141 51.8274736 5 49 C3.56527344 48.55527344 3.56527344 48.55527344 2.1015625 48.1015625 C-0.95707713 47.01524464 -1.81214077 46.18785923 -4 44 C-5.32 44 -6.64 44 -8 44 C-8.495 42.515 -8.495 42.515 -9 41 C-10.32 41 -11.64 41 -13 41 C-13.495 39.515 -13.495 39.515 -14 38 C-14.99 37.34 -15.98 36.68 -17 36 C-17.37231445 33.72509766 -17.37231445 33.72509766 -17.36328125 30.9140625 C-17.36263672 29.90085937 -17.36199219 28.88765625 -17.36132812 27.84375 C-17.34521484 26.7815625 -17.32910156 25.719375 -17.3125 24.625 C-17.31572266 23.57054688 -17.31894531 22.51609375 -17.32226562 21.4296875 C-17.25908616 12.37779372 -17.25908616 12.37779372 -15 9 C-12.375 8.25 -12.375 8.25 -10 8 C-10 7.34 -10 6.68 -10 6 C-8.35 5.67 -6.7 5.34 -5 5 C-5 4.34 -5 3.68 -5 3 C-3.35 2.67 -1.7 2.34 0 2 C0 1.34 0 0.68 0 0 Z " fill="#3C2804" transform="translate(130,60)"/>
<path d="M0 0 C0.89847656 0.40347656 1.79695313 0.80695313 2.72265625 1.22265625 C3.67785156 1.59519531 4.63304688 1.96773438 5.6171875 2.3515625 C9.01151205 4.01918915 11.22799531 5.35079572 13.72265625 8.22265625 C15.11153133 13.76456681 14.34735835 19.6129576 13.72265625 25.22265625 C11.52754311 26.62392025 9.3208467 27.99227052 7.09765625 29.34765625 C6.48019531 29.74597656 5.86273438 30.14429688 5.2265625 30.5546875 C2.01848554 32.47953368 0.32502666 33.34388329 -3.40234375 32.59375 C-4.35109375 32.14128906 -5.29984375 31.68882812 -6.27734375 31.22265625 C-7.19257812 30.92230469 -8.1078125 30.62195313 -9.05078125 30.3125 C-12.17275863 28.92964215 -14.02883052 27.82236583 -16.27734375 25.22265625 C-18.00805255 19.8250706 -17.93698118 13.63152642 -16.27734375 8.22265625 C-13.72361038 5.02781827 -11.01142475 3.74651393 -7.27734375 2.22265625 C-5.91609375 1.23265625 -5.91609375 1.23265625 -4.52734375 0.22265625 C-2.27734375 -0.77734375 -2.27734375 -0.77734375 0 0 Z " fill="#FAC01B" transform="translate(113.27734375,103.77734375)"/>
<path d="M0 0 C2.85919829 1.83004167 4.7786567 3.10266036 5.61962891 6.49560547 C6.09511481 11.53356986 5.68356535 16.48419598 5.125 21.5 C2.92988686 22.901264 0.72319045 24.26961427 -1.5 25.625 C-2.11746094 26.02332031 -2.73492187 26.42164063 -3.37109375 26.83203125 C-6.57917071 28.75687743 -8.27262959 29.62122704 -12 28.87109375 C-12.94875 28.41863281 -13.8975 27.96617187 -14.875 27.5 C-15.79023438 27.19964844 -16.70546875 26.89929688 -17.6484375 26.58984375 C-20.7626949 25.21040541 -22.61913993 24.07995338 -24.875 21.5 C-26.82848091 16.10142116 -26.93785056 9.87388006 -24.875 4.5 C-17.45884795 -3.45879732 -9.71806873 -4.95121117 0 0 Z " fill="#FAC01B" transform="translate(209.875,107.5)"/>
<path d="M0 0 C0.94875 0.45246094 1.8975 0.90492187 2.875 1.37109375 C3.79023438 1.67144531 4.70546875 1.97179687 5.6484375 2.28125 C8.75955084 3.6592957 10.61729573 4.79816284 12.875 7.37109375 C14.89721269 12.77735758 15.02375426 18.99593854 12.875 24.37109375 C9.31922142 28.87585888 4.2386545 31.59501014 -1.125 33.37109375 C-3.71875 32.73828125 -3.71875 32.73828125 -6.125 31.37109375 C-7.08019531 30.99855469 -8.03539062 30.62601563 -9.01953125 30.2421875 C-12.4138558 28.57456085 -14.63033906 27.24295428 -17.125 24.37109375 C-18.51387508 18.82918319 -17.7497021 12.9807924 -17.125 7.37109375 C-14.92988686 5.96982975 -12.72319045 4.60147948 -10.5 3.24609375 C-9.88253906 2.84777344 -9.26507813 2.44945313 -8.62890625 2.0390625 C-5.42082929 0.11421632 -3.72737041 -0.75013329 0 0 Z " fill="#F9C01B" transform="translate(158.125,104.62890625)"/>
<path d="M0 0 C0.78375 0.45117188 1.5675 0.90234375 2.375 1.3671875 C3.25800781 1.6559375 4.14101562 1.9446875 5.05078125 2.2421875 C8.28410228 3.62173781 10.10502048 4.64321207 12.375 7.3671875 C13.67523472 13.2456541 12.93502131 19.43096158 12.375 25.3671875 C10.15768064 26.76538888 7.92961846 28.13482108 5.6875 29.4921875 C5.06166016 29.89050781 4.43582031 30.28882812 3.79101562 30.69921875 C-0.95116457 33.52962997 -0.95116457 33.52962997 -4.25 32.734375 C-5.425625 32.05761719 -5.425625 32.05761719 -6.625 31.3671875 C-7.50800781 31.0784375 -8.39101562 30.7896875 -9.30078125 30.4921875 C-12.53410228 29.11263719 -14.35502048 28.09116293 -16.625 25.3671875 C-17.92523472 19.4887209 -17.18502131 13.30341342 -16.625 7.3671875 C-14.40768064 5.96898612 -12.17961846 4.59955392 -9.9375 3.2421875 C-9.31166016 2.84386719 -8.68582031 2.44554688 -8.04101562 2.03515625 C-3.29883543 -0.79525497 -3.29883543 -0.79525497 0 0 Z " fill="#FCC31B" transform="translate(136.625,67.6328125)"/>
<path d="M0 0 C0.78375 0.43957031 1.5675 0.87914062 2.375 1.33203125 C3.25800781 1.62078125 4.14101562 1.90953125 5.05078125 2.20703125 C8.25434232 3.57388397 10.0808023 4.67963168 12.375 7.33203125 C14.34935237 13.04511292 14.45053351 19.64153143 12.375 25.33203125 C9.18416957 29.61959023 4.45947546 31.96536131 -0.625 33.33203125 C-3.71875 32.6328125 -3.71875 32.6328125 -6.625 31.33203125 C-7.54023438 31.03167969 -8.45546875 30.73132813 -9.3984375 30.421875 C-12.50955084 29.0438293 -14.36729573 27.90496216 -16.625 25.33203125 C-18.64721269 19.92576742 -18.77375426 13.70718646 -16.625 8.33203125 C-13.02775955 3.77473868 -5.91835759 -1.50601064 0 0 Z " fill="#FBC11B" transform="translate(179.625,140.66796875)"/>
<path d="M0 0 C2.52978798 1.68967434 5.02793918 3.40293918 7.1875 5.5625 C7.26075168 8.42517567 7.27988205 11.263219 7.25 14.125 C7.24548828 14.93130859 7.24097656 15.73761719 7.23632812 16.56835938 C7.22450518 18.56643756 7.20656914 20.56447783 7.1875 22.5625 C4.99238686 23.963764 2.78569045 25.33211427 0.5625 26.6875 C-0.05496094 27.08582031 -0.67242187 27.48414063 -1.30859375 27.89453125 C-4.53448415 29.83006549 -6.22085182 30.68112253 -9.96875 29.9296875 C-10.9071875 29.47851562 -11.845625 29.02734375 -12.8125 28.5625 C-13.65554687 28.27375 -14.49859375 27.985 -15.3671875 27.6875 C-18.31885228 26.25638981 -19.86044881 25.24178594 -21.8125 22.5625 C-22.96926704 16.65578477 -22.31781858 10.51402991 -21.8125 4.5625 C-14.33420523 -1.3473986 -8.83874749 -5.61395505 0 0 Z " fill="#FCC31B" transform="translate(141.8125,143.4375)"/>
<path d="M0 0 C1.80895202 1.15048369 3.58717229 2.35253608 5.3125 3.625 C6.3025 4.285 7.2925 4.945 8.3125 5.625 C8.65307617 7.50439453 8.65307617 7.50439453 8.60546875 9.7578125 C8.59580078 10.56347656 8.58613281 11.36914062 8.57617188 12.19921875 C8.55103516 13.04097656 8.52589844 13.88273437 8.5 14.75 C8.47969727 16.02423828 8.47969727 16.02423828 8.45898438 17.32421875 C8.42358219 19.42474837 8.36977401 21.52495293 8.3125 23.625 C-0.67784953 30.30126548 -0.67784953 30.30126548 -5.6875 31.625 C-10.42274232 30.63033457 -13.82555336 28.47326338 -17.6875 25.625 C-18.6775 24.965 -19.6675 24.305 -20.6875 23.625 C-21.02807617 21.74560547 -21.02807617 21.74560547 -20.98046875 19.4921875 C-20.97080078 18.68652344 -20.96113281 17.88085938 -20.95117188 17.05078125 C-20.92603516 16.20902344 -20.90089844 15.36726563 -20.875 14.5 C-20.86146484 13.65050781 -20.84792969 12.80101563 -20.83398438 11.92578125 C-20.79858219 9.82525163 -20.74477401 7.72504707 -20.6875 5.625 C-7.74868328 -3.98341123 -7.74868328 -3.98341123 0 0 Z " fill="#FCC21B" transform="translate(183.6875,69.375)"/>
<path d="M0 0 C1.98683497 2.98025245 3.03022142 5.58310892 4.25 8.9375 C5.99575453 13.61195316 7.96475318 17.97366849 10.3125 22.375 C12.5664277 26.80131796 14.00907802 29.95460991 13 35 C10.74665796 39.33976986 8.54633071 42.09688482 4 44 C-0.31807946 44.54957375 -2.44328894 44.2941115 -6.3125 42.25 C-9.3384031 39.71668578 -10.67762569 37.86819293 -11.34912109 33.97680664 C-11.49825384 27.53825873 -9.60111719 23.06564799 -6.625 17.4375 C-3.63523068 11.64949347 -1.33386846 6.39817126 0 0 Z " fill="#FBC21B" transform="translate(154,202)"/>
<path d="M0 0 C1.9451 2.91765 2.45276317 4.62537285 3 8 C1.35 8.33 -0.3 8.66 -2 9 C-1.34 6.03 -0.68 3.06 0 0 Z " fill="#E5C41D" transform="translate(154,202)"/>
<path d="M0 0 C2 1 2 1 2 1 Z " fill="#000000" transform="translate(144,250)"/>
<path d="" fill="#000000" transform="translate(0,0)"/>
<path d="M0 0 C2 1 2 1 2 1 Z " fill="#000000" transform="translate(119,175)"/>
<path d="M0 0 C2 1 2 1 2 1 Z " fill="#000000" transform="translate(117,174)"/>
<path d="M0 0 C2 1 2 1 2 1 Z " fill="#000000" transform="translate(155,71)"/>
<path d="" fill="#000000" transform="translate(0,0)"/>
<path d="" fill="#000000" transform="translate(0,0)"/>
<path d="" fill="#000000" transform="translate(0,0)"/>
<path d="" fill="#000000" transform="translate(0,0)"/>
<path d="" fill="#000000" transform="translate(0,0)"/>
<path d="" fill="#000000" transform="translate(0,0)"/>
<path d="" fill="#000000" transform="translate(0,0)"/>
<path d="" fill="#000000" transform="translate(0,0)"/>
<path d="" fill="#000000" transform="translate(0,0)"/>
<path d="" fill="#000000" transform="translate(0,0)"/>
<path d="" fill="#000000" transform="translate(0,0)"/>
<path d="" fill="#000000" transform="translate(0,0)"/>
<path d="" fill="#000000" transform="translate(0,0)"/>
<path d="" fill="#000000" transform="translate(0,0)"/>
<path d="" fill="#000000" transform="translate(0,0)"/>
<path d="" fill="#000000" transform="translate(0,0)"/>
<path d="" fill="#000000" transform="translate(0,0)"/>
<path d="" fill="#000000" transform="translate(0,0)"/>
<path d="" fill="#000000" transform="translate(0,0)"/>
<path d="" fill="#000000" transform="translate(0,0)"/>
<path d="" fill="#000000" transform="translate(0,0)"/>
<path d="" fill="#000000" transform="translate(0,0)"/>
<path d="" fill="#000000" transform="translate(0,0)"/>
<path d="" fill="#000000" transform="translate(0,0)"/>
<path d="" fill="#000000" transform="translate(0,0)"/>
<path d="" fill="#000000" transform="translate(0,0)"/>
<path d="" fill="#000000" transform="translate(0,0)"/>
<path d="" fill="#000000" transform="translate(0,0)"/>
<path d="" fill="#000000" transform="translate(0,0)"/>
<path d="" fill="#000000" transform="translate(0,0)"/>
<path d="" fill="#000000" transform="translate(0,0)"/>
<path d="" fill="#000000" transform="translate(0,0)"/>
<path d="" fill="#000000" transform="translate(0,0)"/>
<path d="" fill="#000000" transform="translate(0,0)"/>
<path d="" fill="#000000" transform="translate(0,0)"/>
<path d="" fill="#000000" transform="translate(0,0)"/>
<path d="" fill="#000000" transform="translate(0,0)"/>
<path d="" fill="#000000" transform="translate(0,0)"/>
<path d="" fill="#000000" transform="translate(0,0)"/>
<path d="" fill="#000000" transform="translate(0,0)"/>
<path d="" fill="#000000" transform="translate(0,0)"/>
<path d="" fill="#000000" transform="translate(0,0)"/>
<path d="" fill="#000000" transform="translate(0,0)"/>
<path d="" fill="#000000" transform="translate(0,0)"/>
<path d="" fill="#000000" transform="translate(0,0)"/>
<path d="" fill="#000000" transform="translate(0,0)"/>
<path d="" fill="#000000" transform="translate(0,0)"/>
<path d="" fill="#000000" transform="translate(0,0)"/>
<path d="" fill="#000000" transform="translate(0,0)"/>
<path d="" fill="#000000" transform="translate(0,0)"/>
<path d="" fill="#000000" transform="translate(0,0)"/>
<path d="" fill="#000000" transform="translate(0,0)"/>
<path d="" fill="#000000" transform="translate(0,0)"/>
<path d="" fill="#000000" transform="translate(0,0)"/>
<path d="" fill="#000000" transform="translate(0,0)"/>
<path d="" fill="#000000" transform="translate(0,0)"/>
<path d="" fill="#000000" transform="translate(0,0)"/>
<path d="" fill="#000000" transform="translate(0,0)"/>
<path d="" fill="#000000" transform="translate(0,0)"/>
<path d="" fill="#000000" transform="translate(0,0)"/>
<path d="" fill="#000000" transform="translate(0,0)"/>
<path d="" fill="#000000" transform="translate(0,0)"/>
<path d="" fill="#000000" transform="translate(0,0)"/>
<path d="" fill="#000000" transform="translate(0,0)"/>
<path d="" fill="#000000" transform="translate(0,0)"/>
<path d="" fill="#000000" transform="translate(0,0)"/>
<path d="" fill="#000000" transform="translate(0,0)"/>
<path d="" fill="#000000" transform="translate(0,0)"/>
<path d="" fill="#000000" transform="translate(0,0)"/>
<path d="" fill="#000000" transform="translate(0,0)"/>
<path d="" fill="#000000" transform="translate(0,0)"/>
<path d="" fill="#000000" transform="translate(0,0)"/>
<path d="" fill="#000000" transform="translate(0,0)"/>
<path d="" fill="#000000" transform="translate(0,0)"/>
<path d="" fill="#000000" transform="translate(0,0)"/>
<path d="" fill="#000000" transform="translate(0,0)"/>
<path d="" fill="#000000" transform="translate(0,0)"/>
<path d="" fill="#000000" transform="translate(0,0)"/>
<path d="" fill="#000000" transform="translate(0,0)"/>
<path d="" fill="#000000" transform="translate(0,0)"/>
<path d="" fill="#000000" transform="translate(0,0)"/>
<path d="" fill="#000000" transform="translate(0,0)"/>
<path d="" fill="#000000" transform="translate(0,0)"/>
<path d="" fill="#000000" transform="translate(0,0)"/>
<path d="" fill="#000000" transform="translate(0,0)"/>
<path d="" fill="#000000" transform="translate(0,0)"/>
<path d="" fill="#000000" transform="translate(0,0)"/>
<path d="" fill="#000000" transform="translate(0,0)"/>
<path d="" fill="#000000" transform="translate(0,0)"/>
<path d="" fill="#000000" transform="translate(0,0)"/>
<path d="" fill="#000000" transform="translate(0,0)"/>
</svg>
